<svg width="52" height="55" viewBox="0 0 52 55" fill="none" xmlns="http://www.w3.org/2000/svg">
<mask id="path-1-outside-1_1_6430" maskUnits="userSpaceOnUse" x="-0.407227" y="-0.55957" width="52" height="56" fill="black">
<rect fill="white" x="-0.407227" y="-0.55957" width="52" height="56"/>
<path fill-rule="evenodd" clip-rule="evenodd" d="M27.7216 2.35126C35.0816 2.81967 42.0993 6.60997 45.6434 13.1933C46.155 14.1437 46.7724 15.3443 47.1115 16.4629L50.5935 19.0212L49.2618 20.8339C49.1818 20.9674 49.0876 21.0963 48.9791 21.2186L48.0592 22.4707C47.8766 26.7012 47.1489 30.6326 44.5204 34.1261C38.9179 41.5711 26.4254 43.1623 20.1954 35.6125C17.3425 32.155 16.4975 27.5264 17.7303 23.246C19.5319 16.9907 27.0066 13.6254 32.832 16.7C35.4207 18.0663 37.1588 20.6402 37.4545 23.556C37.9148 28.0912 34.4527 32.5513 29.6326 32.1485C26.4566 31.8831 23.521 28.1731 26.2848 25.1976C28.145 23.1947 32.0676 24.0017 32.0696 27.0464C32.0698 27.4314 31.9819 27.8205 31.8397 28.1785C31.7149 28.4925 31.5212 28.7863 31.283 29.026C29.0139 31.3078 25.5119 27.6313 28.1652 25.8955C28.4077 25.737 28.6907 25.6512 28.9693 25.5666L28.97 25.5664C29.0085 25.5547 29.047 25.5431 29.0852 25.5312C26.8721 25.2531 26.1839 28.2867 27.5283 29.6291C29.7791 31.8763 33.3107 30.3837 34.8192 28.4622C35.5556 27.1214 35.8964 25.9597 35.9776 24.4312C36.2222 19.8321 32.0536 17.3451 28.052 17.0837C24.9118 16.8787 21.7819 18.8151 20.1867 21.4326C19.116 23.1895 18.6122 25.3866 18.6665 27.4332C18.7287 29.777 19.4586 32.0019 20.8028 33.9255C22.2491 35.995 24.2599 37.4145 26.6278 38.2596C33.211 40.6092 40.7868 37.7328 44.268 31.712C45.8955 28.8971 46.5302 25.8378 46.5357 22.6513L43.1453 20.1603L45.5581 16.8762C44.6524 14.4099 44.075 13.2432 42.2627 10.8787C38.8413 6.41485 33.2168 4.47557 27.8329 3.81954C27.5863 5.14486 26.4239 6.14829 25.0272 6.14829C23.7195 6.14829 22.6173 5.26883 22.2796 4.06913C22.2163 4.08273 22.1534 4.09621 22.091 4.10959L22.0908 4.10964C19.9242 4.57432 18.3287 4.91649 16.3751 5.94331C12.8223 7.81082 11.6859 8.44311 8.84049 11.3045C3.64499 16.5296 1.91748 24.4447 2.09758 31.5509C3.00662 31.4233 3.943 31.4405 4.85103 31.574C7.5834 31.9757 8.77546 33.8744 9.24649 36.4532C9.4832 37.7496 9.42075 39.1104 9.35826 40.472C9.25812 42.6541 9.15789 44.838 10.289 46.7608C12.0885 49.8195 15.8859 50.1636 19.207 50.4645L19.2072 50.4645C19.8721 50.5247 20.518 50.5833 21.1249 50.6615L21.212 50.6731C21.164 50.222 21.1667 49.7558 21.1694 49.2925V49.2925C21.1709 49.0454 21.1723 48.7991 21.1661 48.5564C21.909 48.6028 26.1259 48.5774 26.69 48.5485L26.6912 54.138C25.8583 54.1855 25.0202 54.1629 24.1819 54.1404H24.1818C23.195 54.1138 22.2079 54.0872 21.2287 54.1749C21.1308 53.4911 21.1422 52.75 21.2127 52.0632C17.1101 52.0083 10.0492 51.4743 8.54146 46.6378C8.26432 45.7486 8.021 44.8351 7.95333 43.9062C7.81697 42.0345 7.86582 40.8925 7.90673 39.936C7.96162 38.6529 8.00223 37.7035 7.56233 35.7743C7.42335 35.1654 6.96022 34.1111 6.43064 33.6988C5.75013 33.169 4.50216 33.0122 3.72116 32.9832C2.7315 32.9464 1.73717 32.9441 0.750337 33.0292L0.742638 32.9403C0.520191 30.2908 0.526674 27.5351 0.889316 24.8963C2.20941 15.2914 8.39073 7.31851 17.368 3.81406C18.3327 3.4376 21.1446 2.76964 22.2666 2.5675C22.5881 1.34337 23.7022 0.44043 25.0272 0.44043C26.2728 0.44043 27.3321 1.23851 27.7216 2.35126Z"/>
</mask>
<path fill-rule="evenodd" clip-rule="evenodd" d="M27.7216 2.35126C35.0816 2.81967 42.0993 6.60997 45.6434 13.1933C46.155 14.1437 46.7724 15.3443 47.1115 16.4629L50.5935 19.0212L49.2618 20.8339C49.1818 20.9674 49.0876 21.0963 48.9791 21.2186L48.0592 22.4707C47.8766 26.7012 47.1489 30.6326 44.5204 34.1261C38.9179 41.5711 26.4254 43.1623 20.1954 35.6125C17.3425 32.155 16.4975 27.5264 17.7303 23.246C19.5319 16.9907 27.0066 13.6254 32.832 16.7C35.4207 18.0663 37.1588 20.6402 37.4545 23.556C37.9148 28.0912 34.4527 32.5513 29.6326 32.1485C26.4566 31.8831 23.521 28.1731 26.2848 25.1976C28.145 23.1947 32.0676 24.0017 32.0696 27.0464C32.0698 27.4314 31.9819 27.8205 31.8397 28.1785C31.7149 28.4925 31.5212 28.7863 31.283 29.026C29.0139 31.3078 25.5119 27.6313 28.1652 25.8955C28.4077 25.737 28.6907 25.6512 28.9693 25.5666L28.97 25.5664C29.0085 25.5547 29.047 25.5431 29.0852 25.5312C26.8721 25.2531 26.1839 28.2867 27.5283 29.6291C29.7791 31.8763 33.3107 30.3837 34.8192 28.4622C35.5556 27.1214 35.8964 25.9597 35.9776 24.4312C36.2222 19.8321 32.0536 17.3451 28.052 17.0837C24.9118 16.8787 21.7819 18.8151 20.1867 21.4326C19.116 23.1895 18.6122 25.3866 18.6665 27.4332C18.7287 29.777 19.4586 32.0019 20.8028 33.9255C22.2491 35.995 24.2599 37.4145 26.6278 38.2596C33.211 40.6092 40.7868 37.7328 44.268 31.712C45.8955 28.8971 46.5302 25.8378 46.5357 22.6513L43.1453 20.1603L45.5581 16.8762C44.6524 14.4099 44.075 13.2432 42.2627 10.8787C38.8413 6.41485 33.2168 4.47557 27.8329 3.81954C27.5863 5.14486 26.4239 6.14829 25.0272 6.14829C23.7195 6.14829 22.6173 5.26883 22.2796 4.06913C22.2163 4.08273 22.1534 4.09621 22.091 4.10959L22.0908 4.10964C19.9242 4.57432 18.3287 4.91649 16.3751 5.94331C12.8223 7.81082 11.6859 8.44311 8.84049 11.3045C3.64499 16.5296 1.91748 24.4447 2.09758 31.5509C3.00662 31.4233 3.943 31.4405 4.85103 31.574C7.5834 31.9757 8.77546 33.8744 9.24649 36.4532C9.4832 37.7496 9.42075 39.1104 9.35826 40.472C9.25812 42.6541 9.15789 44.838 10.289 46.7608C12.0885 49.8195 15.8859 50.1636 19.207 50.4645L19.2072 50.4645C19.8721 50.5247 20.518 50.5833 21.1249 50.6615L21.212 50.6731C21.164 50.222 21.1667 49.7558 21.1694 49.2925V49.2925C21.1709 49.0454 21.1723 48.7991 21.1661 48.5564C21.909 48.6028 26.1259 48.5774 26.69 48.5485L26.6912 54.138C25.8583 54.1855 25.0202 54.1629 24.1819 54.1404H24.1818C23.195 54.1138 22.2079 54.0872 21.2287 54.1749C21.1308 53.4911 21.1422 52.75 21.2127 52.0632C17.1101 52.0083 10.0492 51.4743 8.54146 46.6378C8.26432 45.7486 8.021 44.8351 7.95333 43.9062C7.81697 42.0345 7.86582 40.8925 7.90673 39.936C7.96162 38.6529 8.00223 37.7035 7.56233 35.7743C7.42335 35.1654 6.96022 34.1111 6.43064 33.6988C5.75013 33.169 4.50216 33.0122 3.72116 32.9832C2.7315 32.9464 1.73717 32.9441 0.750337 33.0292L0.742638 32.9403C0.520191 30.2908 0.526674 27.5351 0.889316 24.8963C2.20941 15.2914 8.39073 7.31851 17.368 3.81406C18.3327 3.4376 21.1446 2.76964 22.2666 2.5675C22.5881 1.34337 23.7022 0.44043 25.0272 0.44043C26.2728 0.44043 27.3321 1.23851 27.7216 2.35126Z" fill="#7A44FF" style="fill:#7A44FF;fill:color(display-p3 0.4784 0.2667 1.0000);fill-opacity:1;"/>
<path d="M45.6434 13.1933L45.2491 13.4056L45.2491 13.4056L45.6434 13.1933ZM27.7216 2.35126L27.2989 2.49918L27.397 2.77929L27.6931 2.79814L27.7216 2.35126ZM47.1115 16.4629L46.6829 16.5928L46.7262 16.7355L46.8464 16.8238L47.1115 16.4629ZM50.5935 19.0212L50.9544 19.2863L51.2195 18.9254L50.8587 18.6603L50.5935 19.0212ZM49.2618 20.8339L48.9009 20.5687L48.8884 20.5857L48.8776 20.6038L49.2618 20.8339ZM48.9791 21.2186L48.6442 20.9214L48.6305 20.9368L48.6182 20.9535L48.9791 21.2186ZM48.0592 22.4707L47.6984 22.2055L47.6177 22.3153L47.6119 22.4514L48.0592 22.4707ZM44.5204 34.1261L44.8782 34.3953L44.8782 34.3953L44.5204 34.1261ZM20.1954 35.6125L19.85 35.8975L19.85 35.8975L20.1954 35.6125ZM17.7303 23.246L17.3 23.122L17.3 23.1221L17.7303 23.246ZM32.832 16.7L32.623 17.096L32.623 17.096L32.832 16.7ZM37.4545 23.556L37.009 23.6011V23.6012L37.4545 23.556ZM29.6326 32.1485L29.5953 32.5948H29.5953L29.6326 32.1485ZM26.2848 25.1976L26.6129 25.5023L26.6129 25.5023L26.2848 25.1976ZM32.0696 27.0464L32.5174 27.0462V27.0461L32.0696 27.0464ZM31.8397 28.1785L32.2558 28.3439L32.2558 28.3439L31.8397 28.1785ZM31.283 29.026L31.6005 29.3417L31.6005 29.3417L31.283 29.026ZM28.1652 25.8955L27.9202 25.5207L27.9201 25.5208L28.1652 25.8955ZM28.9693 25.5666L28.8407 25.1377L28.8393 25.1381L28.9693 25.5666ZM28.97 25.5664L29.0986 25.9953L29.1 25.9949L28.97 25.5664ZM29.0852 25.5312L29.2175 25.959L29.1411 25.0869L29.0852 25.5312ZM27.5283 29.6291L27.2119 29.946L27.2119 29.946L27.5283 29.6291ZM34.8192 28.4622L35.1714 28.7387L35.1941 28.7098L35.2117 28.6777L34.8192 28.4622ZM35.9776 24.4312L35.5305 24.4074V24.4074L35.9776 24.4312ZM28.052 17.0837L28.0812 16.6369L28.0812 16.6369L28.052 17.0837ZM20.1867 21.4326L19.8043 21.1995L19.8043 21.1995L20.1867 21.4326ZM18.6665 27.4332L18.2188 27.4451V27.4451L18.6665 27.4332ZM20.8028 33.9255L20.4358 34.182L20.4358 34.182L20.8028 33.9255ZM26.6278 38.2596L26.7783 37.8378L26.7783 37.8378L26.6278 38.2596ZM44.268 31.712L43.8803 31.4878V31.4878L44.268 31.712ZM46.5357 22.6513L46.9835 22.6521L46.9839 22.4249L46.8009 22.2904L46.5357 22.6513ZM43.1453 20.1603L42.7844 19.8952L42.5193 20.2561L42.8802 20.5212L43.1453 20.1603ZM45.5581 16.8762L45.919 17.1413L46.0614 16.9476L45.9785 16.7218L45.5581 16.8762ZM42.2627 10.8787L41.9073 11.1511L41.9073 11.1511L42.2627 10.8787ZM27.8329 3.81954L27.887 3.37504L27.4695 3.32417L27.3926 3.73765L27.8329 3.81954ZM22.2796 4.06913L22.7107 3.94782L22.5968 3.54305L22.1856 3.63132L22.2796 4.06913ZM22.091 4.10959L21.9971 3.67176L21.9968 3.67183L22.091 4.10959ZM22.0908 4.10964L22.1847 4.54747L22.1851 4.5474L22.0908 4.10964ZM16.3751 5.94331L16.1668 5.54694L16.1668 5.54694L16.3751 5.94331ZM8.84049 11.3045L8.52297 10.9888L8.52296 10.9888L8.84049 11.3045ZM2.09758 31.5509L1.64994 31.5622L1.66266 32.0641L2.15984 31.9943L2.09758 31.5509ZM4.85103 31.574L4.78589 32.017H4.78589L4.85103 31.574ZM9.24649 36.4532L9.68699 36.3728L9.68699 36.3728L9.24649 36.4532ZM9.35826 40.472L8.91094 40.4515V40.4515L9.35826 40.472ZM10.289 46.7608L9.90307 46.9878L9.90308 46.9878L10.289 46.7608ZM19.207 50.4645L19.1666 50.9105L19.1727 50.9109L19.207 50.4645ZM19.2072 50.4645L19.2476 50.0185L19.2415 50.018L19.2072 50.4645ZM21.1249 50.6615L21.1838 50.2176L21.1822 50.2174L21.1249 50.6615ZM21.212 50.6731L21.1532 51.117L21.7177 51.1918L21.6573 50.6256L21.212 50.6731ZM21.1694 49.2925L21.6172 49.2952V49.2925H21.1694ZM21.1694 49.2925L20.7216 49.2898V49.2925H21.1694ZM21.1661 48.5564L21.194 48.1094L20.7058 48.079L20.7184 48.5679L21.1661 48.5564ZM26.69 48.5485L27.1378 48.5484L27.1377 48.0771L26.667 48.1013L26.69 48.5485ZM26.6912 54.138L26.7167 54.5851L27.1391 54.561L27.139 54.1379L26.6912 54.138ZM24.1819 54.1404L24.194 53.6926H24.1819V54.1404ZM24.1818 54.1404L24.1698 54.5881H24.1818V54.1404ZM21.2287 54.1749L20.7854 54.2383L20.8456 54.6587L21.2686 54.6209L21.2287 54.1749ZM21.2127 52.0632L21.6581 52.109L21.7081 51.622L21.2186 51.6155L21.2127 52.0632ZM8.54146 46.6378L8.11396 46.771L8.11396 46.7711L8.54146 46.6378ZM7.95333 43.9062L8.39994 43.8737V43.8737L7.95333 43.9062ZM7.90673 39.936L7.45936 39.9168L7.90673 39.936ZM7.56233 35.7743L7.99891 35.6748L7.99889 35.6747L7.56233 35.7743ZM6.43064 33.6988L6.15557 34.0521H6.15557L6.43064 33.6988ZM3.72116 32.9832L3.70449 33.4307H3.70457L3.72116 32.9832ZM0.750337 33.0292L0.304216 33.0678L0.342819 33.5138L0.788805 33.4753L0.750337 33.0292ZM0.742638 32.9403L0.296418 32.9777L0.296518 32.9789L0.742638 32.9403ZM0.889316 24.8963L0.445697 24.8353L0.445697 24.8353L0.889316 24.8963ZM17.368 3.81406L17.2053 3.39691L17.2052 3.39692L17.368 3.81406ZM22.2666 2.5675L22.346 3.00819L22.6272 2.95753L22.6997 2.68123L22.2666 2.5675ZM46.0377 12.9811C42.408 6.23861 35.2364 2.38082 27.75 1.90437L27.6931 2.79814C34.9269 3.25851 41.7907 6.98133 45.2491 13.4056L46.0377 12.9811ZM47.54 16.333C47.1864 15.1667 46.5488 13.9306 46.0377 12.981L45.2491 13.4056C45.7613 14.3569 46.3583 15.5219 46.6829 16.5928L47.54 16.333ZM50.8587 18.6603L47.3766 16.1021L46.8464 16.8238L50.3284 19.382L50.8587 18.6603ZM49.6226 21.099L50.9544 19.2863L50.2327 18.7561L48.9009 20.5687L49.6226 21.099ZM49.314 21.5158C49.4409 21.3728 49.5516 21.2215 49.6459 21.064L48.8776 20.6038C48.812 20.7134 48.7343 20.8198 48.6442 20.9214L49.314 21.5158ZM48.4201 22.7358L49.34 21.4837L48.6182 20.9535L47.6984 22.2055L48.4201 22.7358ZM44.8782 34.3953C47.5865 30.7959 48.3224 26.757 48.5066 22.49L47.6119 22.4514C47.4308 26.6454 46.7114 30.4694 44.1626 33.8568L44.8782 34.3953ZM19.85 35.8975C23.0756 39.8065 27.9112 41.3331 32.6305 40.9386C37.3454 40.5445 41.9919 38.2309 44.8782 34.3953L44.1626 33.8568C41.4464 37.4663 37.0454 39.6709 32.5559 40.0461C28.0708 40.421 23.5452 38.9683 20.5408 35.3275L19.85 35.8975ZM17.3 23.1221C16.0287 27.5363 16.8978 32.3197 19.85 35.8975L20.5408 35.3275C17.7872 31.9903 16.9663 27.5165 18.1606 23.3699L17.3 23.1221ZM33.041 16.304C26.955 13.0919 19.1773 16.6042 17.3 23.122L18.1606 23.3699C19.8866 17.3772 27.0582 14.159 32.623 17.096L33.041 16.304ZM37.9001 23.5108C37.5891 20.4457 35.7621 17.7402 33.041 16.304L32.623 17.096C35.0793 18.3924 36.7284 20.8348 37.009 23.6011L37.9001 23.5108ZM29.5953 32.5948C34.7524 33.0257 38.3825 28.2641 37.9001 23.5107L37.009 23.6012C37.4472 27.9183 34.1531 32.0769 29.6699 31.7023L29.5953 32.5948ZM25.9567 24.8928C25.2044 25.7027 24.8219 26.5845 24.749 27.4646C24.6764 28.341 24.9133 29.1833 25.3455 29.9167C26.2027 31.3712 27.8587 32.4497 29.5953 32.5948L29.6699 31.7023C28.2305 31.582 26.8306 30.6727 26.117 29.462C25.7638 28.8627 25.5865 28.2031 25.6415 27.5386C25.6963 26.8779 25.9832 26.1802 26.6129 25.5023L25.9567 24.8928ZM32.5174 27.0461C32.5162 25.2881 31.3653 24.1729 29.9922 23.7972C28.6393 23.4271 27.0146 23.7538 25.9567 24.8928L26.6129 25.5023C27.4151 24.6385 28.6818 24.3672 29.7559 24.6611C30.8096 24.9493 31.621 25.76 31.6218 27.0467L32.5174 27.0461ZM32.2558 28.3439C32.415 27.9433 32.5177 27.4978 32.5174 27.0462L31.6218 27.0467C31.622 27.3649 31.5488 27.6978 31.4235 28.0132L32.2558 28.3439ZM31.6005 29.3417C31.8809 29.0596 32.1084 28.7149 32.2558 28.3439L31.4235 28.0131C31.3214 28.2702 31.1615 28.513 30.9654 28.7103L31.6005 29.3417ZM27.9201 25.5208C27.1477 26.0261 26.7784 26.7115 26.7662 27.4302C26.7544 28.1276 27.0796 28.7884 27.5572 29.2795C28.0363 29.7722 28.7011 30.1287 29.4279 30.1898C30.1682 30.252 30.9418 30.0041 31.6005 29.3417L30.9654 28.7102C30.4896 29.1887 29.9745 29.337 29.5029 29.2974C29.0179 29.2566 28.5476 29.0133 28.1992 28.6552C27.8493 28.2954 27.6547 27.8542 27.6616 27.4454C27.6682 27.0579 27.8561 26.6328 28.4104 26.2702L27.9201 25.5208ZM28.8393 25.1381C28.5722 25.2192 28.2255 25.3211 27.9202 25.5207L28.4103 26.2703C28.5898 26.1529 28.8092 26.0832 29.0994 25.9951L28.8393 25.1381ZM28.8413 25.1375L28.8407 25.1377L29.098 25.9955L29.0986 25.9953L28.8413 25.1375ZM28.9529 25.1034C28.916 25.1149 28.8787 25.1262 28.84 25.1379L29.1 25.9949C29.1383 25.9833 29.1779 25.9713 29.2175 25.959L28.9529 25.1034ZM27.8447 29.3122C27.3148 28.7831 27.1582 27.8744 27.3998 27.1069C27.5178 26.732 27.7223 26.423 27.988 26.2235C28.2466 26.0295 28.5873 25.92 29.0294 25.9755L29.1411 25.0869C28.4766 25.0034 27.9014 25.1688 27.4504 25.5073C27.0067 25.8403 26.7082 26.3215 26.5456 26.838C26.2259 27.8534 26.3974 29.1326 27.2119 29.946L27.8447 29.3122ZM34.467 28.1856C33.7737 29.0688 32.5996 29.8658 31.3453 30.1741C30.1042 30.479 28.8329 30.2988 27.8447 29.3122L27.2119 29.946C28.4745 31.2066 30.0944 31.4037 31.559 31.0438C33.0103 30.6871 34.3562 29.7771 35.1714 28.7387L34.467 28.1856ZM35.5305 24.4074C35.4529 25.8667 35.1318 26.963 34.4267 28.2466L35.2117 28.6777C35.9795 27.2798 36.3399 26.0528 36.4248 24.4549L35.5305 24.4074ZM28.0228 17.5305C29.9495 17.6564 31.8982 18.3183 33.3246 19.4782C34.7387 20.6281 35.6443 22.2671 35.5305 24.4074L36.4248 24.4549C36.5555 21.9961 35.4991 20.0921 33.8896 18.7834C32.2925 17.4847 30.1561 16.7724 28.0812 16.6369L28.0228 17.5305ZM20.5691 21.6656C22.0927 19.1657 25.0759 17.3381 28.0228 17.5305L28.0812 16.6369C24.7477 16.4192 21.4712 18.4645 19.8043 21.1995L20.5691 21.6656ZM19.1141 27.4213C19.0618 25.4492 19.549 23.3394 20.5691 21.6656L19.8043 21.1995C18.683 23.0395 18.1626 25.324 18.2188 27.4451L19.1141 27.4213ZM21.1699 33.669C19.8761 31.8175 19.174 29.6778 19.1141 27.4213L18.2188 27.4451C18.2833 29.8762 19.0411 32.1862 20.4358 34.182L21.1699 33.669ZM26.7783 37.8378C24.4867 37.0201 22.5565 35.653 21.1698 33.669L20.4358 34.182C21.9418 36.3369 24.033 37.809 26.4773 38.6813L26.7783 37.8378ZM43.8803 31.4878C40.5051 37.3255 33.1538 40.1133 26.7783 37.8378L26.4772 38.6813C33.2683 41.1051 41.0685 38.1402 44.6556 31.9361L43.8803 31.4878ZM46.088 22.6505C46.0826 25.7768 45.4604 28.755 43.8803 31.4878L44.6556 31.9361C46.3306 29.0391 46.9779 25.8989 46.9835 22.6521L46.088 22.6505ZM42.8802 20.5212L46.2706 23.0121L46.8009 22.2904L43.4104 19.7995L42.8802 20.5212ZM45.1973 16.6111L42.7844 19.8952L43.5062 20.4255L45.919 17.1413L45.1973 16.6111ZM41.9073 11.1511C43.6895 13.4763 44.246 14.6024 45.1378 17.0306L45.9785 16.7218C45.0587 14.2174 44.4606 13.0101 42.6181 10.6063L41.9073 11.1511ZM27.7787 4.26404C33.1129 4.914 38.5929 6.8269 41.9073 11.1511L42.6181 10.6063C39.0896 6.0028 33.3208 4.03714 27.887 3.37504L27.7787 4.26404ZM27.3926 3.73765C27.1848 4.85476 26.2043 5.7005 25.0272 5.7005V6.59608C26.6436 6.59608 27.9878 5.43497 28.2731 3.90143L27.3926 3.73765ZM25.0272 5.7005C23.9253 5.7005 22.9954 4.95952 22.7107 3.94782L21.8486 4.19043C22.2391 5.57814 23.5137 6.59608 25.0272 6.59608V5.7005ZM22.1849 4.54743C22.2473 4.53405 22.3102 4.52056 22.3736 4.50694L22.1856 3.63132C22.1223 3.64491 22.0595 3.65838 21.9971 3.67176L22.1849 4.54743ZM22.1851 4.5474L22.1853 4.54735L21.9968 3.67183L21.9966 3.67188L22.1851 4.5474ZM16.5835 6.33968C18.4765 5.3447 20.0163 5.01254 22.1847 4.54747L21.9969 3.67181C19.8321 4.1361 18.181 4.48828 16.1668 5.54694L16.5835 6.33968ZM9.15801 11.6203C10.5714 10.1989 11.5451 9.34677 12.5971 8.61956C13.6548 7.88851 14.8022 7.27597 16.5835 6.33968L16.1668 5.54694C14.3952 6.47815 13.198 7.11551 12.0879 7.88285C10.9722 8.65402 9.95497 9.54873 8.52297 10.9888L9.15801 11.6203ZM2.54523 31.5395C2.36665 24.4939 4.08425 16.7229 9.15802 11.6203L8.52296 10.9888C3.20573 16.3363 1.4683 24.3956 1.64994 31.5622L2.54523 31.5395ZM4.91617 31.131C3.97062 30.9919 2.99109 30.9733 2.03532 31.1075L2.15984 31.9943C3.02214 31.8733 3.91539 31.889 4.78589 32.017L4.91617 31.131ZM9.68699 36.3728C9.44403 35.0426 9.00749 33.8406 8.24228 32.9124C7.46764 31.9727 6.38319 31.3467 4.91616 31.131L4.78589 32.017C6.05124 32.2031 6.929 32.7272 7.55124 33.482C8.18291 34.2483 8.57792 35.2851 8.80599 36.5337L9.68699 36.3728ZM9.80558 40.4925C9.8676 39.141 9.93445 37.728 9.68699 36.3728L8.80598 36.5337C9.03194 37.7711 8.97389 39.0799 8.91094 40.4515L9.80558 40.4925ZM10.675 46.5337C9.62239 44.7444 9.70427 42.7 9.80558 40.4925L8.91094 40.4515C8.81196 42.6082 8.6934 44.9315 9.90307 46.9878L10.675 46.5337ZM19.2474 50.0185C17.5768 49.8671 15.8477 49.7086 14.3132 49.2201C12.7907 48.7354 11.5013 47.9383 10.675 46.5337L9.90308 46.9878C10.8762 48.642 12.3853 49.5462 14.0416 50.0735C15.686 50.597 17.5161 50.7609 19.1666 50.9104L19.2474 50.0185ZM19.2415 50.018L19.2414 50.018L19.1727 50.9109L19.1728 50.911L19.2415 50.018ZM21.1822 50.2174C20.5653 50.1379 19.9107 50.0786 19.2476 50.0185L19.1667 50.9104C19.8336 50.9709 20.4707 51.0287 21.0677 51.1056L21.1822 50.2174ZM21.2709 50.2291L21.1838 50.2176L21.0661 51.1054L21.1532 51.117L21.2709 50.2291ZM20.7216 49.2899C20.7189 49.7485 20.7156 50.2402 20.7668 50.7205L21.6573 50.6256C21.6123 50.2038 21.6145 49.7632 21.6172 49.2952L20.7216 49.2899ZM20.7216 49.2925V49.2925H21.6172V49.2925H20.7216ZM20.7184 48.5679C20.7245 48.8024 20.7231 49.0415 20.7216 49.2898L21.6172 49.2951C21.6187 49.0493 21.6202 48.7958 21.6137 48.5448L20.7184 48.5679ZM26.667 48.1013C26.1142 48.1297 21.915 48.1545 21.194 48.1094L21.1381 49.0033C21.9029 49.051 26.1377 49.0252 26.7129 48.9957L26.667 48.1013ZM27.139 54.1379L27.1378 48.5484L26.2422 48.5486L26.2434 54.1381L27.139 54.1379ZM24.1699 54.588C25.0049 54.6105 25.8619 54.6338 26.7167 54.5851L26.6657 53.6909C25.8547 53.7372 25.0355 53.7154 24.194 53.6927L24.1699 54.588ZM24.1818 54.5881H24.1819V53.6926H24.1818V54.5881ZM21.2686 54.6209C22.2176 54.536 23.1785 54.5613 24.1698 54.588L24.1939 53.6927C23.2115 53.6663 22.1983 53.6385 21.1887 53.7289L21.2686 54.6209ZM20.7672 52.0175C20.6942 52.7289 20.6809 53.5083 20.7854 54.2383L21.6719 54.1114C21.5807 53.4739 21.5901 52.7712 21.6581 52.109L20.7672 52.0175ZM8.11396 46.7711C8.93321 49.3991 11.2512 50.8102 13.7745 51.5723C16.3041 52.3363 19.1475 52.4834 21.2067 52.511L21.2186 51.6155C19.1753 51.5882 16.4369 51.4408 14.0335 50.715C11.6237 49.9872 9.65742 48.713 8.96896 46.5045L8.11396 46.7711ZM7.50673 43.9388C7.57824 44.9204 7.83425 45.8736 8.11396 46.771L8.96897 46.5046C8.69438 45.6236 8.46376 44.7499 8.39994 43.8737L7.50673 43.9388ZM7.45936 39.9168C7.41815 40.8801 7.36853 42.0419 7.50673 43.9388L8.39994 43.8737C8.26541 42.0272 8.31349 40.9049 8.35411 39.9551L7.45936 39.9168ZM7.12575 35.8739C7.55307 37.7479 7.51344 38.6525 7.45936 39.9168L8.35411 39.9551C8.4098 38.6532 8.45139 37.6591 7.99891 35.6748L7.12575 35.8739ZM6.15557 34.0521C6.34177 34.1971 6.55374 34.4927 6.74398 34.8661C6.92922 35.2296 7.06568 35.6107 7.12576 35.874L7.99889 35.6747C7.92 35.329 7.75541 34.8784 7.54194 34.4595C7.33348 34.0504 7.0491 33.6128 6.70572 33.3454L6.15557 34.0521ZM3.70457 33.4307C4.07696 33.4445 4.5561 33.4888 5.01719 33.5905C5.48733 33.6941 5.89297 33.8477 6.15557 34.0521L6.70572 33.3454C6.28781 33.0201 5.7292 32.8304 5.20998 32.7159C4.68171 32.5995 4.14636 32.5509 3.73776 32.5357L3.70457 33.4307ZM0.788805 33.4753C1.75021 33.3924 2.72437 33.3942 3.70449 33.4307L3.73784 32.5357C2.73862 32.4985 1.72413 32.4958 0.711869 32.5831L0.788805 33.4753ZM0.296518 32.9789L0.304216 33.0678L1.19646 32.9906L1.18876 32.9017L0.296518 32.9789ZM0.445697 24.8353C0.0776281 27.5136 0.071866 30.3031 0.296419 32.9777L1.18886 32.9028C0.968516 30.2784 0.97572 27.5566 1.33294 24.9573L0.445697 24.8353ZM17.2052 3.39692C8.07329 6.96173 1.7874 15.0732 0.445697 24.8353L1.33293 24.9573C2.63142 15.5096 8.70817 7.67529 17.5309 4.23119L17.2052 3.39692ZM22.1872 2.1268C21.0586 2.33015 18.2118 3.00413 17.2053 3.39691L17.5308 4.23121C18.4537 3.87107 21.2307 3.20913 22.346 3.00819L22.1872 2.1268ZM22.6997 2.68123C22.9708 1.64905 23.9107 0.888219 25.0272 0.888219V-0.00735918C23.4936 -0.00735918 22.2054 1.0377 21.8335 2.45376L22.6997 2.68123ZM25.0272 0.888219C26.0767 0.888219 26.9704 1.56044 27.2989 2.49918L28.1442 2.20333C27.6939 0.916582 26.469 -0.00735918 25.0272 -0.00735918V0.888219Z" fill="#7A44FF" style="fill:#7A44FF;fill:color(display-p3 0.4784 0.2667 1.0000);fill-opacity:1;" mask="url(#path-1-outside-1_1_6430)"/>
</svg>
